<svg xmlns="http://www.w3.org/2000/svg" viewBox="0 0 100 100">
  <!-- Gaja negru -->
  <g stroke="#0d0500" stroke-width="2.5" stroke-linejoin="round" stroke-linecap="round" fill="#3a1f10">
    <path d="M44 12 L56 12 L58 22 L42 22 Z"/>
    <path d="M50 7 L50 12" stroke="#d4a847" stroke-width="2"/>
    <circle cx="50" cy="6" r="2" fill="#d4a847" stroke="none"/>
    <ellipse cx="50" cy="50" rx="28" ry="18"/>
    <ellipse cx="73" cy="48" rx="11" ry="13"/>
    <path d="M67 38 Q60 32 56 38 Q60 46 67 45 Z"/>
    <circle cx="75" cy="44" r="1.5" fill="#d4a847" stroke="none"/>
    <path d="M78 56 Q85 65 80 72 Q72 75 70 70" fill="#3a1f10"/>
    <path d="M76 62 L82 66 L79 60 Z" fill="#d4a847" stroke="#0d0500"/>
    <rect x="28" y="65" width="7" height="18" rx="2"/>
    <rect x="40" y="65" width="7" height="18" rx="2"/>
    <rect x="54" y="65" width="7" height="18" rx="2"/>
    <rect x="65" y="65" width="7" height="18" rx="2"/>
    <ellipse cx="50" cy="88" rx="30" ry="4"/>
  </g>
</svg>
