<svg xmlns="http://www.w3.org/2000/svg" viewBox="0 0 100 100">
  <!-- Raja (rege) negru - cu accente aurii pentru contrast -->
  <g stroke="#0d0500" stroke-width="2.5" stroke-linejoin="round" stroke-linecap="round" fill="#3a1f10">
    <path d="M28 26 L33 8 L42 18 L50 5 L58 18 L67 8 L72 26 Z"/>
    <circle cx="50" cy="11" r="2.5" fill="#d4a847"/>
    <rect x="26" y="26" width="48" height="5" rx="1"/>
    <circle cx="50" cy="40" r="8.5"/>
    <path d="M27 50 Q23 56 22 64 L19 82 L81 82 L78 64 Q77 56 73 50 Q62 53 50 53 Q38 53 27 50 Z"/>
    <path d="M22 64 Q50 70 78 64" fill="none" stroke="#d4a847" stroke-width="2"/>
    <path d="M50 53 L47 80 L53 80 Z" fill="#d4a847" stroke="none"/>
    <ellipse cx="50" cy="88" rx="33" ry="5.5"/>
  </g>
</svg>
