<svg xmlns="http://www.w3.org/2000/svg" viewBox="0 0 100 100">
  <!-- Ashva negru -->
  <g stroke="#0d0500" stroke-width="2.5" stroke-linejoin="round" stroke-linecap="round" fill="#3a1f10">
    <path d="M48 15 L46 5 L51 12 Z"/>
    <path d="M53 12 L52 4 L57 10 Z"/>
    <path d="M50 12
             Q42 16 38 26
             Q34 36 36 46
             L30 52
             Q24 60 25 70
             L25 80
             L75 80
             L75 70
             Q74 56 66 48
             Q68 36 64 26
             Q60 16 50 12 Z"/>
    <path d="M55 16 Q60 22 58 30 Q62 35 60 42 Q66 46 64 52"
          fill="none" stroke="#d4a847" stroke-width="2"/>
    <circle cx="44" cy="28" r="1.8" fill="#d4a847" stroke="none"/>
    <path d="M38 30 Q40 33 39 35" fill="none" stroke="#d4a847" stroke-width="1.5"/>
    <path d="M37 32 L42 36" stroke="#d4a847" stroke-width="2"/>
    <circle cx="48" cy="22" r="2" fill="#d4a847" stroke="none"/>
    <ellipse cx="50" cy="88" rx="30" ry="4"/>
  </g>
</svg>
