<?xml version="1.0" encoding="UTF-8"?>
<svg viewBox="0 0 80 100" xmlns="http://www.w3.org/2000/svg" width="160" height="200">
  <defs>
    <radialGradient id="nebunG" cx="34%" cy="28%" r="70%">
      <stop offset="0%" stop-color="#C0B0FF"/>
      <stop offset="100%" stop-color="#3A1880"/>
    </radialGradient>
  </defs>
  <!-- LEGS (static) -->
  <rect x="28" y="84" width="10" height="14" rx="5" fill="#6848C0" stroke="#111" stroke-width="2.5"/>
  <rect x="42" y="84" width="10" height="14" rx="5" fill="#6848C0" stroke="#111" stroke-width="2.5"/>
  <!-- shadow -->
  <ellipse cx="40" cy="90" rx="25" ry="8" fill="rgba(0,0,0,.18)"/>
  <!-- ROBE BODY -->
  <ellipse cx="40" cy="78" rx="26" ry="16" fill="url(#nebunG)" stroke="#111" stroke-width="3"/>
  <ellipse cx="30" cy="69" rx="13" ry="8" fill="rgba(255,255,255,.22)"/>
  <path d="M30 65 Q40 69 50 65" stroke="rgba(255,255,255,.40)" stroke-width="2.5" fill="none" stroke-linecap="round"/>
  <!-- ARMS -->
  <ellipse cx="16" cy="75" rx="14" ry="8" fill="url(#nebunG)" stroke="#111" stroke-width="2.8" transform="rotate(-20,16,75)"/>
  <ellipse cx="64" cy="75" rx="14" ry="8" fill="url(#nebunG)" stroke="#111" stroke-width="2.8" transform="rotate(20,64,75)"/>
  <!-- ROUND FACE -->
  <circle cx="40" cy="51" r="23" fill="url(#nebunG)" stroke="#111" stroke-width="3.5"/>
  <ellipse cx="30" cy="42" rx="11" ry="7" fill="rgba(255,255,255,.38)" transform="rotate(-18,30,42)"/>
  <!-- HAT BAND -->
  <rect x="22" y="46" width="36" height="9" rx="4" fill="#3A1880" stroke="#111" stroke-width="2.5" opacity=".65"/>
  <!-- MITRE HAT -->
  <path d="M25 46 Q30 22 40 7 Q50 22 55 46 Z" fill="url(#nebunG)" stroke="#111" stroke-width="3"/>
  <path d="M29 44 Q32 26 38 13" stroke="rgba(255,255,255,.42)" stroke-width="4" fill="none" stroke-linecap="round"/>
  <!-- cross on hat -->
  <rect x="38" y="19" width="4" height="15" rx="2" fill="#3A1880" stroke="#111" stroke-width="2" opacity=".70"/>
  <rect x="32" y="25" width="16" height="4" rx="2" fill="#3A1880" stroke="#111" stroke-width="2" opacity=".70"/>
  <!-- ball tip -->
  <circle cx="40" cy="9" r="6.5" fill="url(#nebunG)" stroke="#111" stroke-width="2.8"/>
  <circle cx="38" cy="7"  r="2.5" fill="rgba(255,255,255,.55)"/>
  <!-- EYES -->
  <circle cx="30" cy="50" r="10" fill="white" stroke="#111" stroke-width="3"/>
  <circle cx="50" cy="50" r="10" fill="white" stroke="#111" stroke-width="3"/>
  <circle cx="31" cy="51.5" r="5.8" fill="#3A1880"/>
  <circle cx="51" cy="51.5" r="5.8" fill="#3A1880"/>
  <circle cx="31" cy="51.5" r="3.2" fill="#111"/>
  <circle cx="51" cy="51.5" r="3.2" fill="#111"/>
  <circle cx="28" cy="48.5" r="2.4" fill="white"/>
  <circle cx="48" cy="48.5" r="2.4" fill="white"/>
  <circle cx="33.2" cy="52.5" r="1.3" fill="rgba(255,255,255,.70)"/>
  <circle cx="53.2" cy="52.5" r="1.3" fill="rgba(255,255,255,.70)"/>
  <!-- MONOCLE right eye -->
  <circle cx="50" cy="50" r="12" fill="none" stroke="#8B6800" stroke-width="3.5"/>
  <path d="M62 55 Q65 61 63 68 Q61 73 57 74" stroke="#8B6800" stroke-width="2.5" fill="none" stroke-linecap="round"/>
  <circle cx="56" cy="75" r="2.5" fill="#8B6800"/>
  <!-- eyebrows (wise arched) -->
  <path d="M22 41 Q31 35 39 39" stroke="#111" stroke-width="3.5" fill="none" stroke-linecap="round"/>
  <path d="M41 39 Q49 35 58 41" stroke="#111" stroke-width="3.5" fill="none" stroke-linecap="round"/>
  <!-- CHEEKS -->
  <circle cx="21" cy="60" r="8" fill="rgba(180,140,255,.50)"/>
  <circle cx="59" cy="60" r="8" fill="rgba(180,140,255,.50)"/>
  <!-- WISE SMILE -->
  <path d="M26 65 Q40 78 54 65" stroke="#111" stroke-width="3.5" fill="none" stroke-linecap="round"/>
</svg>
