<?xml version="1.0" encoding="UTF-8"?>
<svg viewBox="0 0 80 100" xmlns="http://www.w3.org/2000/svg" width="160" height="200">
  <defs>
    <radialGradient id="pG" cx="34%" cy="28%" r="70%">
      <stop offset="0%" stop-color="#FFF4A0"/>
      <stop offset="100%" stop-color="#7A4A00"/>
    </radialGradient>
  </defs>
  <!-- BASE -->
  <ellipse cx="40" cy="84" rx="26" ry="12" fill="url(#pG)" stroke="#111" stroke-width="3"/>
  <ellipse cx="31" cy="78" rx="11" ry="6" fill="rgba(255,255,255,.28)"/>
  <!-- NECK -->
  <rect x="33" y="64" width="14" height="22" rx="7" fill="url(#pG)" stroke="#111" stroke-width="2.8"/>
  <!-- ARMS -->
  <ellipse cx="19" cy="74" rx="14" ry="8" fill="url(#pG)" stroke="#111" stroke-width="2.8" transform="rotate(-20,19,74)"/>
  <ellipse cx="61" cy="74" rx="14" ry="8" fill="url(#pG)" stroke="#111" stroke-width="2.8" transform="rotate(20,61,74)"/>
  <!-- LEGS (static) -->
  <rect x="28" y="86" width="10" height="12" rx="5" fill="#D4A828" stroke="#111" stroke-width="2.5"/>
  <rect x="42" y="86" width="10" height="12" rx="5" fill="#D4A828" stroke="#111" stroke-width="2.5"/>
  <!-- HEAD -->
  <circle cx="40" cy="32" r="29" fill="url(#pG)" stroke="#111" stroke-width="3.5"/>
  <ellipse cx="28" cy="21" rx="12" ry="7" fill="rgba(255,255,255,.40)" transform="rotate(-20,28,21)"/>
  <!-- CROWN -->
  <rect x="25" y="10" width="30" height="9" rx="3" fill="#E8A818" stroke="#111" stroke-width="2.5"/>
  <polygon points="27,10 32,2 37,10" fill="#FFD700" stroke="#111" stroke-width="2" stroke-linejoin="round"/>
  <polygon points="36,10 40,0 44,10" fill="#FFF090" stroke="#111" stroke-width="2" stroke-linejoin="round"/>
  <polygon points="43,10 48,2 53,10" fill="#FFD700" stroke="#111" stroke-width="2" stroke-linejoin="round"/>
  <!-- EYES -->
  <circle cx="29" cy="29" r="11" fill="white" stroke="#111" stroke-width="3"/>
  <circle cx="51" cy="29" r="11" fill="white" stroke="#111" stroke-width="3"/>
  <circle cx="30" cy="30" r="6.5" fill="#7A4A00"/>
  <circle cx="52" cy="30" r="6.5" fill="#7A4A00"/>
  <circle cx="30" cy="30" r="3.5" fill="#111"/>
  <circle cx="52" cy="30" r="3.5" fill="#111"/>
  <circle cx="27" cy="27" r="2.5" fill="white"/>
  <circle cx="49" cy="27" r="2.5" fill="white"/>
  <!-- eyelid arcs -->
  <path d="M19 25 Q29 17 39 24" stroke="#111" stroke-width="3" fill="none" stroke-linecap="round"/>
  <path d="M41 24 Q51 17 61 25" stroke="#111" stroke-width="3" fill="none" stroke-linecap="round"/>
  <!-- CHEEKS -->
  <circle cx="19" cy="40" r="8.5" fill="rgba(255,120,120,.52)"/>
  <circle cx="61" cy="40" r="8.5" fill="rgba(255,120,120,.52)"/>
  <!-- SMILE -->
  <path d="M24 46 Q40 61 56 46" fill="rgba(255,200,180,.55)" stroke="#111" stroke-width="3" stroke-linecap="round"/>
</svg>
