<?xml version="1.0" encoding="UTF-8"?>
<svg viewBox="0 0 80 100" xmlns="http://www.w3.org/2000/svg" width="160" height="200">
  <defs>
    <radialGradient id="turnG" cx="34%" cy="28%" r="70%">
      <stop offset="0%" stop-color="#B0D4F8"/>
      <stop offset="100%" stop-color="#183870"/>
    </radialGradient>
  </defs>
  <!-- LEGS (static) -->
  <rect x="26" y="83" width="11" height="15" rx="5.5" fill="#3878C0" stroke="#111" stroke-width="2.5"/>
  <rect x="43" y="83" width="11" height="15" rx="5.5" fill="#3878C0" stroke="#111" stroke-width="2.5"/>
  <ellipse cx="31" cy="97" rx="10" ry="5" fill="#3878C0" stroke="#111" stroke-width="2"/>
  <ellipse cx="49" cy="97" rx="10" ry="5" fill="#3878C0" stroke="#111" stroke-width="2"/>
  <!-- shadow -->
  <ellipse cx="40" cy="88" rx="28" ry="8" fill="rgba(0,0,0,.18)"/>
  <!-- BASE wide -->
  <ellipse cx="40" cy="82" rx="28" ry="11" fill="url(#turnG)" stroke="#111" stroke-width="3"/>
  <!-- TOWER BODY -->
  <rect x="14" y="48" width="52" height="36" rx="9" fill="url(#turnG)" stroke="#111" stroke-width="3.5"/>
  <rect x="16" y="50" width="18" height="32" rx="7" fill="rgba(255,255,255,.18)"/>
  <!-- ARMS -->
  <ellipse cx="9"  cy="65" rx="13" ry="8" fill="url(#turnG)" stroke="#111" stroke-width="2.8" transform="rotate(-14,9,65)"/>
  <ellipse cx="71" cy="65" rx="13" ry="8" fill="url(#turnG)" stroke="#111" stroke-width="2.8" transform="rotate(14,71,65)"/>
  <!-- BATTLEMENTS (3) -->
  <rect x="14" y="28" width="14" height="24" rx="5" fill="url(#turnG)" stroke="#111" stroke-width="3"/>
  <rect x="33" y="28" width="14" height="24" rx="5" fill="url(#turnG)" stroke="#111" stroke-width="3"/>
  <rect x="52" y="28" width="14" height="24" rx="5" fill="url(#turnG)" stroke="#111" stroke-width="3"/>
  <rect x="15" y="29" width="5" height="22" rx="3" fill="rgba(255,255,255,.22)"/>
  <rect x="34" y="29" width="5" height="22" rx="3" fill="rgba(255,255,255,.22)"/>
  <rect x="53" y="29" width="5" height="22" rx="3" fill="rgba(255,255,255,.22)"/>
  <rect x="14" y="48" width="52" height="6" rx="3" fill="url(#turnG)" stroke="#111" stroke-width="2"/>
  <!-- FACE (big eyes like windows) -->
  <circle cx="28" cy="63" r="10.5" fill="white" stroke="#111" stroke-width="3"/>
  <circle cx="52" cy="63" r="10.5" fill="white" stroke="#111" stroke-width="3"/>
  <circle cx="29" cy="64.5" r="6.1" fill="#183870"/>
  <circle cx="53" cy="64.5" r="6.1" fill="#183870"/>
  <circle cx="29" cy="64.5" r="3.4" fill="#111"/>
  <circle cx="53" cy="64.5" r="3.4" fill="#111"/>
  <circle cx="25.9" cy="61.4" r="2.5" fill="white"/>
  <circle cx="49.9" cy="61.4" r="2.5" fill="white"/>
  <circle cx="31.1" cy="65.6" r="1.4" fill="rgba(255,255,255,.70)"/>
  <circle cx="55.1" cy="65.6" r="1.4" fill="rgba(255,255,255,.70)"/>
  <!-- THICK UNIBROW -->
  <path d="M16 51 Q28 43 40 46 Q52 43 64 51" stroke="#111" stroke-width="7" fill="none" stroke-linecap="round"/>
  <path d="M38 46 Q40 48 42 46" stroke="#5898D8" stroke-width="5.5" fill="none"/>
  <!-- CHEEKS -->
  <circle cx="16" cy="73" r="8" fill="rgba(160,180,240,.52)"/>
  <circle cx="64" cy="73" r="8" fill="rgba(160,180,240,.52)"/>
  <!-- GAP TOOTH SMILE -->
  <path d="M20 78 Q40 93 60 78" fill="rgba(200,220,255,.30)" stroke="#111" stroke-width="3.5" stroke-linecap="round"/>
  <rect x="33" y="78" width="7" height="7" rx="3" fill="white" stroke="#111" stroke-width="2.5"/>
  <rect x="44" y="78" width="7" height="7" rx="3" fill="white" stroke="#111" stroke-width="2.5"/>
  <rect x="40" y="78" width="4" height="6" rx="2" fill="#183870" opacity=".65"/>
</svg>
