<svg xmlns="http://www.w3.org/2000/svg" viewBox="0 0 100 128">
  <g fill="#1a3a6b">
    <!-- coroana: 5 varfuri, centrul cel mai inalt, stă pe cap -->
    <polygon points="28,34 33,22 38,31 43,16 47,31 50,13 53,31 57,16 62,31 67,22 72,34"/>
    <!-- cap -->
    <circle cx="50" cy="42" r="13"/>
    <!-- corp -->
    <path d="
      M 43,55
      C 37,62 30,72 30,79
      C 30,84 34,88 36,92
      L 18,97
      L 18,113
      Q 18,117 22,117
      L 78,117
      Q 82,117 82,113
      L 82,97
      L 64,92
      C 66,88 70,84 70,79
      C 70,72 63,62 57,55
      Z
    "/>
  </g>
</svg>
